<svg width="20" height="20" viewBox="0 0 20 20" fill="none" xmlns="http://www.w3.org/2000/svg">
<path d="M17.5002 4.16658L2.50017 4.16658C2.34831 4.16706 2.19944 4.20894 2.06961 4.28773C1.93978 4.36651 1.83389 4.47922 1.76334 4.61371C1.6928 4.7482 1.66027 4.89938 1.66925 5.05098C1.67824 5.20258 1.7284 5.34887 1.81434 5.47408L9.31434 16.3074C9.62517 16.7566 10.3735 16.7566 10.6852 16.3074L18.1852 5.47408C18.272 5.34913 18.3229 5.20277 18.3324 5.05092C18.3418 4.89906 18.3095 4.74751 18.2389 4.61274C18.1683 4.47797 18.0621 4.36512 17.9319 4.28646C17.8016 4.2078 17.6523 4.16634 17.5002 4.16658Z" fill="#414141"/>
</svg>
