<svg width="32" height="32" viewBox="0 0 32 32" fill="none" xmlns="http://www.w3.org/2000/svg">
<path d="M0 25.375C2.5625 27.1875 7.25 28 12 28C16.6875 28 21.375 27.1875 24 25.375V28C24 30.25 18.625 32 12 32C5.375 32 0 30.25 0 28V25.375ZM20 8C13.375 8 8 6.25 8 4C8 1.8125 13.375 0 20 0C26.625 0 32 1.8125 32 4C32 6.25 26.625 8 20 8ZM0 18.8125C2.5625 20.9375 7.25 22 12 22C16.6875 22 21.375 20.9375 24 18.8125V22C24 24.25 18.625 26 12 26C5.375 26 0 24.25 0 22V18.8125ZM26 19.5V15.5C28.375 15.0625 30.5 14.375 32 13.375V16C32 17.5 29.5625 18.8125 26 19.5ZM12 10C18.625 10 24 12.25 24 15C24 17.8125 18.625 20 12 20C5.375 20 0 17.8125 0 15C0 12.25 5.375 10 12 10ZM25.6875 13.5625C25.125 12.0625 23.75 10.875 21.9375 10C25.9375 9.75 29.75 8.9375 32 7.375V10C32 11.5625 29.4375 12.875 25.6875 13.5625Z" fill="#00A876"/>
</svg>
