<svg width="26" height="29" viewBox="0 0 26 29" fill="none" xmlns="http://www.w3.org/2000/svg">
<path d="M7.54 17.69V8.69995H2.6C1.17 8.69995 0 10.005 0 11.6V20.3C0 21.895 1.17 23.2 2.6 23.2H3.9V27.55L7.8 23.2H14.3C15.73 23.2 16.9 21.895 16.9 20.3V17.661C16.8146 17.6814 16.7274 17.6916 16.64 17.6914H7.54V17.69ZM23.4 1.44995H11.7C10.27 1.44995 9.1 2.75495 9.1 4.34995V15.95H18.2L22.1 20.3V15.95H23.4C24.83 15.95 26 14.6464 26 13.05V4.34995C26 2.75495 24.83 1.44995 23.4 1.44995Z" fill="#414141"/>
</svg>
