<svg width="36" height="37" viewBox="0 0 36 37" fill="none" xmlns="http://www.w3.org/2000/svg">
<path fill-rule="evenodd" clip-rule="evenodd" d="M15.75 6.3457C10.1581 6.3457 5.625 10.8788 5.625 16.4707C5.625 22.0626 10.1581 26.5957 15.75 26.5957C18.5463 26.5957 21.076 25.4637 22.9095 23.6302C24.743 21.7967 25.875 19.267 25.875 16.4707C25.875 10.8788 21.3419 6.3457 15.75 6.3457ZM3.375 16.4707C3.375 9.63618 8.91548 4.0957 15.75 4.0957C22.5845 4.0957 28.125 9.63618 28.125 16.4707C28.125 19.4824 27.048 22.2443 25.2599 24.3896L32.2955 31.4252C32.7348 31.8645 32.7348 32.5769 32.2955 33.0162C31.8562 33.4555 31.1438 33.4555 30.7045 33.0162L23.6689 25.9806C21.5236 27.7687 18.7617 28.8457 15.75 28.8457C8.91548 28.8457 3.375 23.3052 3.375 16.4707Z" fill="#939393"/>
</svg>
