<svg width="50" height="50" viewBox="0 0 50 50" fill="none" xmlns="http://www.w3.org/2000/svg">
<circle cx="25" cy="25" r="25" fill="#00A876"/>
<g clip-path="url(#clip0_18_555)">
<path d="M18.225 21.935L16.9 20.6088L24.1212 13.385C24.2369 13.2686 24.3745 13.1762 24.5261 13.1131C24.6777 13.05 24.8402 13.0176 25.0044 13.0176C25.1685 13.0176 25.3311 13.05 25.4826 13.1131C25.6342 13.1762 25.7718 13.2686 25.8875 13.385L33.1125 20.6088L31.7875 21.9338L25.0062 15.1538L18.225 21.935Z" fill="white"/>
</g>
<g clip-path="url(#clip1_18_555)">
<path d="M18.225 33.935L16.9 32.6088L24.1212 25.385C24.2369 25.2686 24.3745 25.1762 24.5261 25.1131C24.6777 25.05 24.8402 25.0176 25.0044 25.0176C25.1685 25.0176 25.3311 25.05 25.4826 25.1131C25.6342 25.1762 25.7718 25.2686 25.8875 25.385L33.1125 32.6088L31.7875 33.9338L25.0062 27.1538L18.225 33.935Z" fill="#F9F9F9"/>
</g>
<defs>
<clipPath id="clip0_18_555">
<rect width="15" height="30" fill="white" transform="matrix(0 -1 1 0 10 25)"/>
</clipPath>
<clipPath id="clip1_18_555">
<rect width="15" height="30" fill="white" transform="matrix(0 -1 1 0 10 37)"/>
</clipPath>
</defs>
</svg>
