<svg width="50" height="50" viewBox="0 0 50 50" fill="none" xmlns="http://www.w3.org/2000/svg">
<circle cx="25" cy="25" r="25" fill="#00A876"/>
<g clip-path="url(#clip0_18_547)">
<path d="M31.775 26.065L33.1 27.3912L25.8787 34.615C25.763 34.7314 25.6254 34.8238 25.4739 34.8869C25.3223 34.95 25.1598 34.9824 24.9956 34.9824C24.8315 34.9824 24.6689 34.95 24.5174 34.8869C24.3658 34.8238 24.2282 34.7314 24.1125 34.615L16.8875 27.3912L18.2125 26.0662L24.9937 32.8462L31.775 26.065Z" fill="white"/>
</g>
<g clip-path="url(#clip1_18_547)">
<path d="M31.775 14.065L33.1 15.3912L25.8787 22.615C25.763 22.7314 25.6254 22.8238 25.4739 22.8869C25.3223 22.95 25.1598 22.9824 24.9956 22.9824C24.8315 22.9824 24.6689 22.95 24.5174 22.8869C24.3658 22.8238 24.2282 22.7314 24.1125 22.615L16.8875 15.3912L18.2125 14.0662L24.9937 20.8462L31.775 14.065Z" fill="#F9F9F9"/>
</g>
<defs>
<clipPath id="clip0_18_547">
<rect width="15" height="30" fill="white" transform="matrix(0 1 -1 0 40 23)"/>
</clipPath>
<clipPath id="clip1_18_547">
<rect width="15" height="30" fill="white" transform="matrix(0 1 -1 0 40 11)"/>
</clipPath>
</defs>
</svg>
