<svg width="30" height="30" viewBox="0 0 30 30" fill="none" xmlns="http://www.w3.org/2000/svg">
<path d="M24.375 3.75H5.625C5.12772 3.75 4.65081 3.94754 4.29917 4.29917C3.94754 4.65081 3.75 5.12772 3.75 5.625V24.375C3.75 24.8723 3.94754 25.3492 4.29917 25.7008C4.65081 26.0525 5.12772 26.25 5.625 26.25H24.375C24.8723 26.25 25.3492 26.0525 25.7008 25.7008C26.0525 25.3492 26.25 24.8723 26.25 24.375V5.625C26.25 5.12772 26.0525 4.65081 25.7008 4.29917C25.3492 3.94754 24.8723 3.75 24.375 3.75ZM17.1492 9.10078C16.9733 8.92487 16.8745 8.68628 16.8745 8.4375C16.8745 8.18872 16.9733 7.95013 17.1492 7.77422C17.3251 7.59831 17.5637 7.49948 17.8125 7.49948C18.0613 7.49948 18.2999 7.59831 18.4758 7.77422L19.6875 8.98711L20.8992 7.77422C21.0751 7.59831 21.3137 7.49948 21.5625 7.49948C21.8113 7.49948 22.0499 7.59831 22.2258 7.77422C22.4017 7.95013 22.5005 8.18872 22.5005 8.4375C22.5005 8.68628 22.4017 8.92487 22.2258 9.10078L21.0129 10.3125L22.2258 11.5242C22.3129 11.6113 22.382 11.7147 22.4291 11.8285C22.4763 11.9423 22.5005 12.0643 22.5005 12.1875C22.5005 12.3107 22.4763 12.4327 22.4291 12.5465C22.382 12.6603 22.3129 12.7637 22.2258 12.8508C22.1387 12.9379 22.0353 13.007 21.9215 13.0541C21.8077 13.1013 21.6857 13.1255 21.5625 13.1255C21.4393 13.1255 21.3173 13.1013 21.2035 13.0541C21.0897 13.007 20.9863 12.9379 20.8992 12.8508L19.6875 11.6379L18.4758 12.8508C18.2999 13.0267 18.0613 13.1255 17.8125 13.1255C17.5637 13.1255 17.3251 13.0267 17.1492 12.8508C16.9733 12.6749 16.8745 12.4363 16.8745 12.1875C16.8745 11.9387 16.9733 11.7001 17.1492 11.5242L18.3621 10.3125L17.1492 9.10078ZM13.125 20.625H11.25V22.5C11.25 22.7486 11.1512 22.9871 10.9754 23.1629C10.7996 23.3387 10.5611 23.4375 10.3125 23.4375C10.0639 23.4375 9.8254 23.3387 9.64959 23.1629C9.47377 22.9871 9.375 22.7486 9.375 22.5V20.625H7.5C7.25136 20.625 7.0129 20.5262 6.83709 20.3504C6.66127 20.1746 6.5625 19.9361 6.5625 19.6875C6.5625 19.4389 6.66127 19.2004 6.83709 19.0246C7.0129 18.8488 7.25136 18.75 7.5 18.75H9.375V16.875C9.375 16.6264 9.47377 16.3879 9.64959 16.2121C9.8254 16.0363 10.0639 15.9375 10.3125 15.9375C10.5611 15.9375 10.7996 16.0363 10.9754 16.2121C11.1512 16.3879 11.25 16.6264 11.25 16.875V18.75H13.125C13.3736 18.75 13.6121 18.8488 13.7879 19.0246C13.9637 19.2004 14.0625 19.4389 14.0625 19.6875C14.0625 19.9361 13.9637 20.1746 13.7879 20.3504C13.6121 20.5262 13.3736 20.625 13.125 20.625ZM13.125 11.25H7.5C7.25136 11.25 7.0129 11.1512 6.83709 10.9754C6.66127 10.7996 6.5625 10.5611 6.5625 10.3125C6.5625 10.0639 6.66127 9.8254 6.83709 9.64959C7.0129 9.47377 7.25136 9.375 7.5 9.375H13.125C13.3736 9.375 13.6121 9.47377 13.7879 9.64959C13.9637 9.8254 14.0625 10.0639 14.0625 10.3125C14.0625 10.5611 13.9637 10.7996 13.7879 10.9754C13.6121 11.1512 13.3736 11.25 13.125 11.25ZM22.5 22.5H16.875C16.6264 22.5 16.3879 22.4012 16.2121 22.2254C16.0363 22.0496 15.9375 21.8111 15.9375 21.5625C15.9375 21.3139 16.0363 21.0754 16.2121 20.8996C16.3879 20.7238 16.6264 20.625 16.875 20.625H22.5C22.7486 20.625 22.9871 20.7238 23.1629 20.8996C23.3387 21.0754 23.4375 21.3139 23.4375 21.5625C23.4375 21.8111 23.3387 22.0496 23.1629 22.2254C22.9871 22.4012 22.7486 22.5 22.5 22.5ZM22.5 18.75H16.875C16.6264 18.75 16.3879 18.6512 16.2121 18.4754C16.0363 18.2996 15.9375 18.0611 15.9375 17.8125C15.9375 17.5639 16.0363 17.3254 16.2121 17.1496C16.3879 16.9738 16.6264 16.875 16.875 16.875H22.5C22.7486 16.875 22.9871 16.9738 23.1629 17.1496C23.3387 17.3254 23.4375 17.5639 23.4375 17.8125C23.4375 18.0611 23.3387 18.2996 23.1629 18.4754C22.9871 18.6512 22.7486 18.75 22.5 18.75Z" fill="#414141"/>
</svg>
