<svg width="80" height="80" viewBox="0 0 80 80" fill="none" xmlns="http://www.w3.org/2000/svg">
<circle cx="40" cy="40" r="40" fill="white" fill-opacity="0.6"/>
<path d="M54.8125 39.4999C54.8134 39.8713 54.7182 40.2366 54.5361 40.5603C54.354 40.8839 54.0913 41.155 53.7734 41.347L34.075 53.3974C33.7429 53.6008 33.3625 53.7118 32.9732 53.719C32.5838 53.7262 32.1996 53.6294 31.8602 53.4384C31.524 53.2505 31.2439 52.9763 31.0488 52.6443C30.8537 52.3122 30.7506 51.9341 30.75 51.549V27.4509C30.7506 27.0658 30.8537 26.6877 31.0488 26.3556C31.2439 26.0236 31.524 25.7494 31.8602 25.5615C32.1996 25.3705 32.5838 25.2737 32.9732 25.2809C33.3625 25.2881 33.7429 25.3991 34.075 25.6025L53.7734 37.6529C54.0913 37.8449 54.354 38.116 54.5361 38.4396C54.7182 38.7633 54.8134 39.1286 54.8125 39.4999Z" fill="#414141"/>
</svg>
